<svg width="60" height="60" viewBox="0 0 60 60" fill="none" xmlns="http://www.w3.org/2000/svg">
<path d="M30 0C13.4575 0 0 13.4575 0 30C0 46.5425 13.4575 60 30 60C46.5425 60 60 46.5425 60 30C60 13.4575 46.5425 0 30 0ZM36.7675 40.7325C37.7449 41.71 37.7449 43.29 36.7675 44.2675C36.28 44.755 35.64 45 34.9999 45C34.36 45 33.7199 44.755 33.2324 44.2675L20.7325 31.7675C19.755 30.7901 19.755 29.21 20.7325 28.2326L33.2325 15.7325C34.21 14.7551 35.79 14.7551 36.7675 15.7325C37.7449 16.71 37.7449 18.29 36.7675 19.2675L26.035 30L36.7675 40.7325Z" fill="#7024C4" fill-opacity="0.75"/>
</svg>
