<svg width="75" height="75" viewBox="0 0 75 75" fill="none" xmlns="http://www.w3.org/2000/svg">
<path d="M75 56.8359C75 48.2156 68.9929 41.0027 60.9375 39.1424C59.6185 38.8382 58.2474 38.6718 56.8359 38.6718C56.4415 38.6718 56.052 38.6888 55.6641 38.7135C46.8615 39.2748 39.7664 46.1021 38.7903 54.7852C38.7147 55.4585 38.6719 56.1422 38.6719 56.8359C38.6719 58.1425 38.8131 59.4158 39.075 60.6445C40.8259 68.8471 48.1108 75 56.8359 75C66.8678 75 75 66.8678 75 56.8359ZM56.8359 68.8477C50.202 68.8477 44.8241 63.4699 44.8241 56.8359C44.8241 50.202 50.202 44.8241 56.8359 44.8241C63.4699 44.8241 68.8477 50.202 68.8477 56.8359C68.8477 63.4699 63.4699 68.8477 56.8359 68.8477Z" fill="#7024C4"/>
<path d="M59.1797 48.6328H55.0782V55.0782H48.6328V59.1796H59.1797V55.0782V48.6328Z" fill="#7024C4"/>
<path d="M13.4766 0C12.3457 0 11.4259 0.919975 11.4259 2.05074V6.73824V11.7188C11.4259 12.8496 12.3457 13.7695 13.4766 13.7695H15.2344C16.3653 13.7695 17.2852 12.8495 17.2852 11.7188V6.73824V2.05074C17.2852 0.919975 16.3653 0 15.2343 0H13.4766Z" fill="#7024C4"/>
<path d="M45.7032 0C44.5723 0 43.6525 0.919975 43.6525 2.05074V6.73824V11.7188C43.6525 12.8496 44.5724 13.7695 45.7032 13.7695H47.461C48.5919 13.7695 49.5118 12.8495 49.5118 11.7188V6.73824V2.05074C49.5118 0.919975 48.5918 0 47.4609 0H45.7032Z" fill="#7024C4"/>
<path d="M4.6875 60.6445H33.6914C33.4055 59.2229 33.2537 57.754 33.2537 56.25C33.2537 55.7572 33.2754 55.2697 33.307 54.7852H8.78909C6.8473 54.7852 5.27341 53.2113 5.27341 51.2695V23.1445H55.6641V34.0154C56.052 33.9955 56.4428 33.9844 56.8359 33.9844C58.2375 33.9844 59.6067 34.1203 60.9375 34.3693V11.4257C60.9375 8.83699 58.8387 6.73822 56.25 6.73822H52.4414V11.7187C52.4414 14.4651 50.2074 16.6993 47.4609 16.6993H45.7031C42.9567 16.6993 40.7225 14.4651 40.7225 11.7187V6.73822H20.2148V11.7187C20.2148 14.4651 17.9806 16.6993 15.2343 16.6993H13.4765C10.7301 16.6993 8.49596 14.4651 8.49596 11.7187V6.73822H4.6875C2.09877 6.73822 0 8.83712 0 11.4257V55.957C0 58.5457 2.09877 60.6445 4.6875 60.6445Z" fill="#7024C4"/>
<path d="M16.5164 36.5848C19.0852 36.5848 21.1676 34.5024 21.1676 31.9336C21.1676 29.3648 19.0852 27.2823 16.5164 27.2823C13.9476 27.2823 11.8652 29.3648 11.8652 31.9336C11.8652 34.5024 13.9476 36.5848 16.5164 36.5848Z" fill="#7024C4"/>
<path d="M30.4687 36.5848C33.0376 36.5848 35.12 34.5024 35.12 31.9336C35.12 29.3648 33.0376 27.2823 30.4687 27.2823C27.8999 27.2823 25.8175 29.3648 25.8175 31.9336C25.8175 34.5024 27.8999 36.5848 30.4687 36.5848Z" fill="#7024C4"/>
<path d="M44.4212 36.5848C46.99 36.5848 49.0724 34.5024 49.0724 31.9336C49.0724 29.3648 46.99 27.2823 44.4212 27.2823C41.8524 27.2823 39.77 29.3648 39.77 31.9336C39.77 34.5024 41.8524 36.5848 44.4212 36.5848Z" fill="#7024C4"/>
<path d="M30.4688 50.6472C33.0375 50.6472 35.1199 48.5648 35.1199 45.9961C35.1199 43.4274 33.0375 41.345 30.4688 41.345C27.9 41.345 25.8176 43.4274 25.8176 45.9961C25.8176 48.5648 27.9 50.6472 30.4688 50.6472Z" fill="#7024C4"/>
<path d="M16.5164 50.6472C19.0852 50.6472 21.1675 48.5648 21.1675 45.9961C21.1675 43.4274 19.0852 41.345 16.5164 41.345C13.9477 41.345 11.8653 43.4274 11.8653 45.9961C11.8653 48.5648 13.9477 50.6472 16.5164 50.6472Z" fill="#7024C4"/>
</svg>
