<svg height="512" viewBox="0 0 512 512" width="512" xmlns="http://www.w3.org/2000/svg" xmlns:xlink="http://www.w3.org/1999/xlink"><linearGradient id="New_Gradient_Swatch_2" gradientUnits="userSpaceOnUse" x1="224.007" x2="224.007" y1="96.697" y2="453.261"><stop offset="0" stop-color="#fc5c7d"/><stop offset=".129" stop-color="#f35e85"/><stop offset=".343" stop-color="#d9659b"/><stop offset=".616" stop-color="#b070bf"/><stop offset=".934" stop-color="#777ff0"/><stop offset="1" stop-color="#6a82fb"/></linearGradient><linearGradient id="New_Gradient_Swatch_2-2" x1="88" x2="88" xlink:href="#New_Gradient_Swatch_2" y1="96.697" y2="453.261"/><linearGradient id="New_Gradient_Swatch_2-3" x1="272" x2="272" xlink:href="#New_Gradient_Swatch_2" y1="96.697" y2="453.261"/><linearGradient id="New_Gradient_Swatch_2-5" x1="423.902" x2="423.902" xlink:href="#New_Gradient_Swatch_2" y1="96.697" y2="453.261"/><linearGradient id="New_Gradient_Swatch_2-6" x1="369.958" x2="369.958" xlink:href="#New_Gradient_Swatch_2" y1="96.697" y2="453.261"/><linearGradient id="New_Gradient_Swatch_2-7" x1="480.298" x2="480.298" xlink:href="#New_Gradient_Swatch_2" y1="96.697" y2="453.261"/><linearGradient id="New_Gradient_Swatch_2-8" x1="139.408" x2="139.408" xlink:href="#New_Gradient_Swatch_2" y1="96.697" y2="453.261"/><linearGradient id="New_Gradient_Swatch_2-9" x1="61.445" x2="61.445" xlink:href="#New_Gradient_Swatch_2" y1="96.697" y2="453.261"/><g id="GD001"><path d="m414.013 384.885a28.649 28.649 0 0 0 -22.439.037l-51.721 21.962a28.013 28.013 0 0 0 -27.853-30.879h-62.056a40.627 40.627 0 0 1 -18.082-4.269 187.855 187.855 0 0 0 -83.584-19.731h-20.278a8 8 0 0 0 -8-8h-104v16h96v96h-96v16h104a8 8 0 0 0 8-8v-3.051l59.728 24.8a138.434 138.434 0 0 0 101.806 1.125l123.582-47.119a29.093 29.093 0 0 0 16.339-15.572 29.608 29.608 0 0 0 .47-22.962 29.112 29.112 0 0 0 -15.912-16.341zm.805 32.84a13.209 13.209 0 0 1 -7.4 7.085l-123.585 47.123a122.446 122.446 0 0 1 -90.023-.974l-65.81-27.329v-75.625h20.278a171.767 171.767 0 0 1 76.428 18.042 56.714 56.714 0 0 0 25.238 5.958h62.056a11.993 11.993 0 0 1 .475 23.976c-.323.009-.644.024-.968.024h-95.507v16h95.507c.165 0 .328-.011.493-.012v.012c.558 0 1.111-.021 1.661-.054a49.407 49.407 0 0 0 17.283-3.9l66.877-28.4a12.766 12.766 0 0 1 9.995-.015 13.238 13.238 0 0 1 7.22 7.446 13.725 13.725 0 0 1 -.218 10.643z" fill="url(#New_Gradient_Swatch_2)"/><path d="m80 424.005h16v16h-16z" fill="url(#New_Gradient_Swatch_2-2)"/><path d="m272 212.687-14.745-14.746a47.6 47.6 0 0 0 -67.315 67.314l76.4 76.4a8 8 0 0 0 11.314 0l76.4-76.4a47.6 47.6 0 0 0 -67.315-67.314zm48.4-12.687a31.6 31.6 0 0 1 22.343 53.941l-70.743 70.746-70.745-70.746a31.6 31.6 0 1 1 44.685-44.686l20.4 20.4a8 8 0 0 0 11.314 0l20.4-20.4a31.387 31.387 0 0 1 22.346-9.255z" fill="url(#New_Gradient_Swatch_2-3)"/><path d="m272 72c-105.869 0-192 86.131-192 192a191.353 191.353 0 0 0 11.936 66.783l15-5.566a175.42 175.42 0 0 1 -10.936-61.217c0-97.047 78.953-176 176-176s176 78.953 176 176a175.019 175.019 0 0 1 -30.785 99.473l13.191 9.054a190.941 190.941 0 0 0 33.594-108.527c0-105.869-86.131-192-192-192z" fill="url(#New_Gradient_Swatch_2-3)"/><path d="m431.782 272.415c.145-2.781.218-5.612.218-8.415s-.073-5.634-.218-8.415l-15.978.83c.13 2.506.2 5.058.2 7.585s-.066 5.079-.2 7.585z" fill="url(#New_Gradient_Swatch_2-5)"/><path d="m314.1 109.6-4.2 15.438a144.043 144.043 0 0 1 104.315 116.215l15.8-2.506a160.067 160.067 0 0 0 -115.915-129.147z" fill="url(#New_Gradient_Swatch_2-6)"/><path d="m492.167 222.528-15.727 2.944a209.811 209.811 0 0 1 3.56 38.528 206.85 206.85 0 0 1 -15.4 78.7l14.808 6.059a222.774 222.774 0 0 0 16.592-84.759 225.961 225.961 0 0 0 -3.833-41.472z" fill="url(#New_Gradient_Swatch_2-7)"/><path d="m218.068 63.058-4.136-15.458a223.852 223.852 0 0 0 -153.184 141.734l15.086 5.332a207.853 207.853 0 0 1 142.234-131.608z" fill="url(#New_Gradient_Swatch_2-8)"/><path d="m71.058 210.069-15.458-4.138c-1.461 5.455-2.729 11.039-3.77 16.6l15.727 2.946c.968-5.163 2.143-10.346 3.501-15.408z" fill="url(#New_Gradient_Swatch_2-9)"/></g></svg>