<svg width="75" height="75" viewBox="0 0 75 75" fill="none" xmlns="http://www.w3.org/2000/svg">
<g clip-path="url(#clip0)">
<path d="M37.5 31.25C46.1295 31.25 53.125 24.2545 53.125 15.625C53.125 6.99555 46.1295 0 37.5 0C28.8706 0 21.875 6.99555 21.875 15.625C21.875 24.2545 28.8706 31.25 37.5 31.25Z" fill="#7024C4"/>
<path d="M33.307 63.0344C30.6055 57.6289 32.2133 50.2828 36.9789 46.3109C39.1854 44.4913 41.9596 43.5023 44.8195 43.5156C47.7536 43.5866 50.6176 44.4269 53.125 45.9523C55.0496 44.8127 57.1687 44.0395 59.375 43.6719V40.625C59.3723 38.1394 58.3837 35.7564 56.6262 33.9988C54.8686 32.2413 52.4856 31.2527 50 31.25H25C22.5144 31.2527 20.1314 32.2413 18.3738 33.9988C16.6163 35.7564 15.6277 38.1394 15.625 40.625V65.625C15.625 66.4538 15.9542 67.2487 16.5403 67.8347C17.1263 68.4208 17.9212 68.75 18.75 68.75H37.8906C36.0403 67.1275 34.4889 65.193 33.307 63.0344V63.0344Z" fill="#7024C4"/>
<path d="M67.2719 48.7102C65.5015 47.2313 60.6695 44.4782 53.125 49.6399C45.5789 44.4774 40.7476 47.2329 38.9781 48.7102C35.3445 51.7422 34.0562 57.5383 36.1023 61.6368C39.3836 68.1993 51.8906 74.5641 52.4211 74.8321C52.6392 74.942 52.88 74.9992 53.1242 74.9992C53.3684 74.9992 53.6092 74.942 53.8273 74.8321C54.3578 74.5641 66.8648 68.1985 70.1461 61.6368C72.1953 57.5407 70.9055 51.7422 67.2719 48.7102ZM62.5 59.3751C61.8819 59.3751 61.2777 59.1918 60.7638 58.8484C60.2499 58.505 59.8494 58.017 59.6129 57.4459C59.3763 56.8749 59.3145 56.2466 59.435 55.6404C59.5556 55.0342 59.8532 54.4774 60.2903 54.0404C60.7273 53.6033 61.2841 53.3057 61.8903 53.1851C62.4965 53.0645 63.1249 53.1264 63.6959 53.3629C64.2669 53.5995 64.755 54 65.0983 54.5139C65.4417 55.0278 65.625 55.632 65.625 56.2501C65.625 57.0789 65.2957 57.8737 64.7097 58.4598C64.1236 59.0458 63.3288 59.3751 62.5 59.3751Z" fill="#7024C4"/>
</g>
<defs>
<clipPath id="clip0">
<rect width="75" height="75" fill="white"/>
</clipPath>
</defs>
</svg>
