<svg width="75" height="75" viewBox="0 0 75 75" fill="none" xmlns="http://www.w3.org/2000/svg">
<path d="M33.2606 45.7209C33.2606 46.3943 33.5243 47.0301 34.0033 47.5079C34.9938 48.4966 36.6062 48.4966 37.5984 47.5079C37.9143 47.1897 38.7263 45.599 39.7104 41.8213C35.9196 42.8043 34.3226 43.6174 34.0033 43.9339C33.5243 44.4111 33.2606 45.0457 33.2606 45.7209V45.7209Z" fill="#7024C4"/>
<path d="M43.4744 15.505V11.7239H44.2463C46.1597 11.7239 47.7161 10.1669 47.7161 8.25405V3.46985C47.7161 1.55697 46.1597 0 44.2463 0H29.0308C27.1173 0 25.561 1.55697 25.561 3.46985V8.25348C25.561 10.1669 27.1173 11.7233 29.0308 11.7233H29.8027V15.505C16.436 18.6052 6.44531 30.5923 6.44531 44.8637C6.44531 61.4811 19.9905 75 36.6388 75C53.2866 75 66.8318 61.4811 66.8318 44.8637C66.8318 30.5923 56.8411 18.6052 43.4744 15.505V15.505ZM36.6388 66.4587C24.7089 66.4587 15.0043 56.7701 15.0043 44.8637C15.0043 32.9561 24.7089 23.2693 36.6388 23.2693C48.5682 23.2693 58.2727 32.9561 58.2727 44.8637C58.2727 56.7701 48.5682 66.4587 36.6388 66.4587V66.4587Z" fill="#7024C4"/>
<path d="M36.6388 27.6638C27.1334 27.6638 19.3989 35.3789 19.3989 44.8637C19.3989 54.3474 27.1334 62.0642 36.6388 62.0642C46.1443 62.0642 53.8782 54.3474 53.8782 44.8637C53.8782 35.3789 46.1443 27.6638 36.6388 27.6638V27.6638ZM44.3132 41.5266C43.8429 43.4973 42.5949 48.7295 40.702 50.6178C39.3499 51.9671 37.5761 52.6405 35.8005 52.6405C34.0256 52.6405 32.25 51.9671 30.8996 50.6178C29.5881 49.3097 28.866 47.5708 28.866 45.7209C28.866 43.8704 29.5881 42.1303 30.8996 40.8222C31.3665 40.3547 32.7907 38.934 40.0051 37.2202C41.2239 36.9318 42.4787 37.2877 43.3639 38.1724C44.2486 39.057 44.6028 40.3113 44.3132 41.5266V41.5266Z" fill="#7024C4"/>
<path d="M67.3199 17.2268L64.2906 14.1986C62.4521 12.3619 59.4641 12.3619 57.6267 14.1975L55.295 16.5275C59.1488 19.0635 62.4596 22.3594 65.0082 26.2001L67.3199 23.8901C68.2102 22.9997 68.7012 21.8158 68.7012 20.5576C68.7012 19.2993 68.2102 18.116 67.3199 17.2268V17.2268Z" fill="#7024C4"/>
</svg>
