<svg width="50" height="50" viewBox="0 0 50 50" fill="none" xmlns="http://www.w3.org/2000/svg">
<g clip-path="url(#clip0)">
<path d="M36.2768 4.74403C36.1507 4.35955 35.7367 4.15027 35.3525 4.27625L35.0925 4.3615V4.07703C35.0925 3.67244 34.7645 3.3446 34.3601 3.3446C33.9556 3.3446 33.6276 3.67244 33.6276 4.07703V4.3616L33.3676 4.27635C32.9833 4.15066 32.5694 4.35975 32.4433 4.74412C32.3175 5.1285 32.5269 5.54227 32.9112 5.66835L33.1811 5.75692L33.0113 5.99296C32.6612 6.47939 33.014 7.15342 33.6051 7.15342C34.0319 7.15342 34.1979 6.85175 34.3602 6.62646L34.5202 6.84873C34.7563 7.17685 35.214 7.25176 35.5426 7.01523C35.8708 6.7789 35.9454 6.32128 35.7091 5.99286L35.5392 5.75683L35.8091 5.66825C36.1934 5.54218 36.4028 5.1284 36.2768 4.74403Z" fill="#7024C4"/>
<path d="M43.5193 12.606C43.3932 12.2215 42.9792 12.0122 42.5951 12.1382L42.335 12.2234V11.939C42.335 11.5344 42.0071 11.2065 41.6026 11.2065C41.1981 11.2065 40.8701 11.5344 40.8701 11.939V12.2234L40.6101 12.1382C40.2258 12.0127 39.812 12.2216 39.6859 12.606C39.56 12.9902 39.7695 13.404 40.1537 13.5301L40.4237 13.6187L40.2537 13.8547C40.0175 14.183 40.092 14.6407 40.4203 14.8771C40.7491 15.1137 41.2064 15.0385 41.4427 14.7106L41.6027 14.4883C41.7566 14.7021 41.9249 15.0153 42.3578 15.0153C42.9476 15.0153 43.3022 14.342 42.9516 13.8548L42.7817 13.6188L43.0516 13.5302C43.4359 13.4041 43.6454 12.9903 43.5193 12.606Z" fill="#7024C4"/>
<path d="M33.7401 11.6455C34.1447 11.6455 34.4726 11.3176 34.4726 10.9131C34.4726 10.5086 34.1447 10.1807 33.7401 10.1807C33.3356 10.1807 33.0077 10.5086 33.0077 10.9131C33.0077 11.3176 33.3356 11.6455 33.7401 11.6455Z" fill="#E5E5E5"/>
<path d="M45.459 23.5021C45.8635 23.5021 46.1914 23.1742 46.1914 22.7697C46.1914 22.3651 45.8635 22.0372 45.459 22.0372C45.0545 22.0372 44.7265 22.3651 44.7265 22.7697C44.7265 23.1742 45.0545 23.5021 45.459 23.5021Z" fill="#D1D1D1"/>
<path d="M37.8417 17.8955C38.2463 17.8955 38.5742 17.5676 38.5742 17.1631C38.5742 16.7586 38.2463 16.4307 37.8417 16.4307C37.4372 16.4307 37.1093 16.7586 37.1093 17.1631C37.1093 17.5676 37.4372 17.8955 37.8417 17.8955Z" fill="#D1D1D1"/>
<path d="M45.7529 8.32508C46.1574 8.32508 46.4853 7.99716 46.4853 7.59266C46.4853 7.18815 46.1574 6.86023 45.7529 6.86023C45.3484 6.86023 45.0205 7.18815 45.0205 7.59266C45.0205 7.99716 45.3484 8.32508 45.7529 8.32508Z" fill="#D1D1D1"/>
<path d="M32.2209 12.6453C31.8395 12.1732 31.2991 12.1259 31.2991 12.1259C30.8792 12.0679 30.5242 12.3654 30.469 12.746C30.4101 13.1482 30.6895 13.5177 31.0882 13.5761L29.7815 14.8495C29.6086 15.0185 29.5295 15.2607 29.5706 15.498L29.8792 17.2969C29.8792 17.2969 29.8792 17.2969 29.8782 17.2969C27.7263 16.1648 28.1047 16.1722 25.969 17.2958H25.968C25.9669 17.2969 25.9669 17.2969 25.9659 17.2969L26.2745 15.498C26.3156 15.2607 26.2365 15.0186 26.0646 14.8495L24.757 13.5761L26.5637 13.3135C26.802 13.2783 27.008 13.1288 27.1145 12.913L27.9231 11.2763L28.2414 11.9218C28.3655 12.1737 28.6175 12.3309 28.8987 12.3309C29.4409 12.3309 29.7943 11.7605 29.5558 11.2732L29.2366 10.6278C28.6987 9.52625 27.1329 9.55399 26.6086 10.6278L25.972 11.9188C24.519 12.1299 24.0647 12.1003 23.6243 12.6453C23.4075 12.9119 23.2923 13.2352 23.2923 13.5799C23.2866 14.3396 23.7305 14.6198 24.7659 15.6298L24.5228 17.0497C24.5081 17.1318 24.5013 17.2167 24.5013 17.3017C24.5003 17.6943 24.6624 18.0751 24.9446 18.3466C25.2281 18.6211 25.5946 18.7636 25.9681 18.7636C26.4253 18.7636 26.5864 18.6265 27.9221 17.9238H27.9231L29.1975 18.5936C30.1666 19.1076 31.3466 18.3943 31.344 17.3017C31.344 17.2167 31.3372 17.1318 31.3225 17.0497L31.0794 15.6298L32.1105 14.6249C32.6605 14.0938 32.7014 13.2363 32.2209 12.6453Z" fill="#D1D1D1"/>
<path d="M49.2675 25.6592H39.5192L39.8667 25.3204C40.8456 24.3664 40.3046 22.7028 38.9524 22.5065L37.0714 22.2331L36.2301 20.5286C35.6253 19.3027 33.8761 19.3033 33.2715 20.5286L32.4302 22.2331L30.5493 22.5065C29.1966 22.7029 28.6565 24.3667 29.6349 25.3204L29.9825 25.6592H27.3619C27.4048 25.2361 27.265 24.7979 26.9416 24.4743L22.7984 20.3311C22.2272 19.76 21.298 19.76 20.7269 20.3311C19.311 21.7472 18.8929 22.1652 18.1777 22.8805L15.3701 20.0728C14.6836 19.3863 13.714 19.1265 12.7761 19.3777C11.8383 19.629 11.1285 20.3389 10.8772 21.2766L9.40891 26.7563C8.53225 27.1285 7.84445 27.816 7.47209 28.6932L1.99257 30.1614C-0.00422221 30.6962 -0.674343 33.1912 0.788653 34.6545L3.59629 37.4621C2.15614 38.9022 1.18592 39.8726 1.04705 40.0113C0.474491 40.5838 0.474491 41.5105 1.04705 42.083L5.19024 46.2263C5.47579 46.5119 5.85089 46.6546 6.22599 46.6546C6.60109 46.6546 6.97619 46.5119 7.26173 46.2263L26.3634 27.124H48.5351V44.4581C48.5341 44.8605 48.206 45.1895 47.8027 45.1906H23.096C22.6927 45.1895 22.3645 44.8605 22.3636 44.4581V35.1173C22.3636 34.7139 22.0354 34.3848 21.6311 34.3848C21.2278 34.3848 20.8997 34.713 20.8987 35.1153C20.8987 35.1163 20.8987 35.1173 20.8987 35.1173V44.4581C20.8987 45.045 21.1272 45.5968 21.5423 46.0118C21.9573 46.4258 22.5091 46.6554 23.096 46.6554H47.8027C49.0116 46.6554 49.9999 45.6776 49.9999 44.4581V26.3916C49.9999 25.984 49.6666 25.6592 49.2675 25.6592ZM12.2918 21.6559C12.535 20.7484 13.669 20.4435 14.334 21.1087L17.1417 23.9163C16.1334 24.9246 14.977 26.081 13.7561 27.302L14.6398 24.0039C14.7445 23.6131 14.5127 23.2115 14.1219 23.1068C13.7312 23.002 13.3295 23.234 13.225 23.6247L12.3743 26.7996C11.9392 26.5986 11.4743 26.4868 11.003 26.4666L12.2918 21.6559ZM10.2224 28.0178C11.0164 27.7862 11.8671 28.0111 12.4389 28.6193C11.4117 29.6464 10.3617 30.6964 9.3346 31.7236C8.09357 30.5542 8.60637 28.4892 10.2224 28.0178ZM1.82421 33.6188C1.51219 33.3067 1.39403 32.8659 1.50829 32.4396C1.62245 32.0133 1.9452 31.6907 2.37138 31.5764L7.18214 30.2874C7.20236 30.7587 7.31408 31.2237 7.51506 31.6588L4.34023 32.5095C3.94941 32.6141 3.71757 33.0159 3.82236 33.4066C3.92705 33.7973 4.32861 34.0292 4.71934 33.9246L8.0174 33.0409C6.7964 34.2619 5.63975 35.4186 4.63174 36.4265L1.82421 33.6188ZM6.22569 45.1906L2.08261 41.0474C2.23759 40.8924 3.42675 39.7032 5.14971 37.9803C5.14971 37.9802 5.14971 37.9802 5.14971 37.9802L5.14981 37.9801C6.49161 36.6383 17.08 26.0496 18.6952 24.4344L18.6954 24.4342C19.9799 23.1496 18.3081 24.8215 21.7624 21.3671L25.9062 25.5095L6.22569 45.1906ZM38.8442 24.2715L37.4206 25.6593H32.0809C30.5502 24.1671 30.5616 24.2324 30.6105 24.082C30.66 23.9297 30.5874 23.9812 33.0218 23.6274C33.2604 23.5929 33.4667 23.443 33.5733 23.2268C34.6655 21.0139 34.5925 21.0738 34.7507 21.0738C34.909 21.0738 34.836 21.0139 35.9281 23.2268C36.0348 23.443 36.241 23.5928 36.4796 23.6274L38.7418 23.9562C38.8946 23.9783 38.955 24.1635 38.8442 24.2715Z" fill="#7024C4"/>
</g>
<defs>
<clipPath id="clip0">
<rect width="50" height="50" fill="white"/>
</clipPath>
</defs>
</svg>
