<svg width="50" height="50" viewBox="0 0 50 50" fill="none" xmlns="http://www.w3.org/2000/svg">
<path d="M25 50C38.8071 50 50 38.8071 50 25C50 11.1929 38.8071 0 25 0C11.1929 0 0 11.1929 0 25C0 38.8071 11.1929 50 25 50Z" fill="#6C27B3"/>
<path d="M36.5928 12.9807C33.6058 13.3588 30.4913 13.3456 27.3569 13.0472C22.9798 12.7105 16.5825 10.6902 14.2256 14.7307C10.4392 21.199 12.3067 29.4802 13.1891 36.8086L26.347 49.9637C39.0802 49.2876 49.2851 39.0841 49.9633 26.3514L36.5928 12.9807Z" fill="#501A96"/>
<path d="M30.7839 10.6902H19.216C14.5149 10.6902 10.6902 14.5149 10.6902 19.216V30.7839C10.6902 35.4849 14.5149 39.3098 19.2161 39.3098H30.784C35.485 39.3098 39.3099 35.4851 39.3099 30.7839V19.216C39.3098 14.5149 35.4851 10.6902 30.7839 10.6902ZM36.4307 30.784C36.4307 33.9025 33.9025 36.4307 30.784 36.4307H19.2161C16.0976 36.4307 13.5694 33.9025 13.5694 30.784V19.2161C13.5694 16.0976 16.0976 13.5693 19.2161 13.5693H30.784C33.9025 13.5693 36.4307 16.0977 36.4307 19.2161V30.784Z" fill="white"/>
<path d="M25 17.5979C20.9185 17.5979 17.5978 20.9186 17.5978 25C17.5978 29.0812 20.9185 32.4019 25 32.4019C29.0814 32.4019 32.4018 29.0815 32.4018 25C32.4018 20.9186 29.0814 17.5979 25 17.5979ZM25 29.5228C22.502 29.5228 20.4769 27.4981 20.4769 25C20.4769 22.502 22.502 20.477 25 20.477C27.4979 20.477 29.5227 22.5019 29.5227 25C29.5227 27.498 27.4979 29.5228 25 29.5228Z" fill="white"/>
<path d="M34.1898 17.6537C34.1898 18.6332 33.3957 19.4275 32.4161 19.4275C31.4366 19.4275 30.6423 18.6332 30.6423 17.6537C30.6423 16.6741 31.4366 15.88 32.4161 15.88C33.3958 15.88 34.1898 16.674 34.1898 17.6537Z" fill="#D1D1D1"/>
<path d="M30.784 10.6902H24.944V13.5693H30.784C33.9026 13.5693 36.4307 16.0977 36.4307 19.2161V30.784C36.4307 33.9025 33.9026 36.4307 30.784 36.4307H24.944V39.3098H30.784C35.485 39.3098 39.3098 35.4851 39.3098 30.7839V19.216C39.3098 14.5149 35.4851 10.6902 30.784 10.6902Z" fill="#D1D1D1"/>
<path d="M25 17.5979C24.9812 17.5979 24.9628 17.5992 24.944 17.5992V20.4783C24.9626 20.4781 24.9812 20.477 25 20.477C27.498 20.477 29.5228 22.5019 29.5228 25C29.5228 27.498 27.4981 29.5228 25 29.5228C24.9812 29.5228 24.9626 29.5216 24.944 29.5214V32.4005C24.9628 32.4007 24.9812 32.4019 25 32.4019C29.0815 32.4019 32.4019 29.0814 32.4019 25C32.4019 20.9186 29.0815 17.5979 25 17.5979Z" fill="#D1D1D1"/>
</svg>
