<svg width="75" height="75" viewBox="0 0 75 75" fill="none" xmlns="http://www.w3.org/2000/svg">
<g clip-path="url(#clip0)">
<path d="M2.46724 42.2069C7.54526 31.319 11.625 23.806 11.625 23.806C11.625 23.806 11.9871 34.4353 17.6379 40.681C23.2888 46.9267 31.2543 52.8491 32.9224 56.1466C34.5905 59.444 32.6121 62.1336 31.9526 65.7931C31.2931 69.4526 31.9784 74.0948 37.6034 72.0517C42.9698 70.0991 49.319 70.8491 54.5431 72.8405C56.8836 73.7198 59.1853 75 61.7457 75C63.0647 75 65.2759 74.7802 65.8707 73.319C68.3379 67.3461 50.7181 64.3836 42.6207 54.3491C40.7984 51.7438 39.4178 48.856 38.5345 45.8017C32.5216 28.9267 33.5043 27.5819 30.181 20.9741C26.8578 14.3664 24.8405 8.74139 23.1724 5.43104C21.6336 2.3651 16.5517 -5.3974 1.54009 6.09958C0.573475 6.83774 0.00446453 7.98293 0 9.19915V41.6677C0.00119299 42.2745 0.424181 42.7989 1.01701 42.9284C1.60983 43.058 2.21301 42.7579 2.46724 42.2069V42.2069Z" fill="#7024C4"/>
<path d="M46.1948 18.4914C46.659 18.966 46.5634 19.4962 46.5517 20.069C46.5589 25.4252 50.9067 29.7615 56.2629 29.7543C61.6191 29.7472 65.9554 25.3994 65.9483 20.0431C65.9483 19.4315 65.8461 18.9776 66.2883 18.5082C66.5327 18.2498 66.8727 18.1034 67.2284 18.1035H74.9677C74.632 8.00815 66.3509 -0.00213623 56.25 -0.00213623C46.1491 -0.00213623 37.868 8.00815 37.5323 18.1035H45.2715C45.6189 18.1035 45.9517 18.2433 46.1948 18.4914V18.4914ZM59.3754 4.86082C61.1858 3.99961 62.4207 5.2203 62.0302 6.77978C59.5228 16.8104 63.3621 16.0862 63.3621 20.0431C63.3621 23.971 60.1779 27.1552 56.25 27.1552C52.3221 27.1552 49.1379 23.971 49.1379 20.0431C49.1379 13.8259 56.4233 6.25737 59.3754 4.86082Z" fill="#7024C4"/>
<path d="M68.5177 20.6897C68.1759 27.2156 62.7849 32.3317 56.25 32.3317C49.7151 32.3317 44.3241 27.2156 43.9823 20.6897H37.6009C38.5956 30.2414 46.6466 37.4975 56.25 37.4975C65.8534 37.4975 73.9044 30.2414 74.8991 20.6897H68.5177Z" fill="#7024C4"/>
<path d="M56.25 24.569C58.7496 24.569 60.7759 22.5427 60.7759 20.0432C60.7759 17.7595 57.3711 16.8725 59.0741 8.14661C56.3961 10.385 51.7241 15.8147 51.7241 20.0432C51.7241 22.5427 53.7504 24.569 56.25 24.569Z" fill="#7024C4"/>
</g>
<defs>
<clipPath id="clip0">
<rect width="75" height="75" fill="white"/>
</clipPath>
</defs>
</svg>
