<svg width="75" height="75" viewBox="0 0 75 75" fill="none" xmlns="http://www.w3.org/2000/svg">
<path d="M68.6029 52.5838C67.539 51.9995 66.2032 52.3881 65.6191 53.4516C65.0348 54.5152 65.4233 55.8511 66.4869 56.4353C69.1043 57.8732 70.6055 59.4672 70.6055 60.8087C70.6055 62.4495 68.2808 64.9925 61.7559 67.2092C55.3099 69.3995 46.6956 70.6055 37.5 70.6055C28.3044 70.6055 19.6901 69.3995 13.2441 67.2092C6.71924 64.9926 4.39453 62.4495 4.39453 60.8087C4.39453 59.4672 5.8957 57.8732 8.51309 56.4352C9.57671 55.851 9.96519 54.515 9.38086 53.4514C8.79653 52.3879 7.46104 51.9993 6.39712 52.5837C3.47886 54.1869 0 56.9153 0 60.8087C0 63.7932 2.05254 68.0483 11.8304 71.3703C18.7198 73.7109 27.8361 75 37.5 75C47.1639 75 56.2802 73.7109 63.1696 71.3703C72.9475 68.0483 75 63.7932 75 60.8087C75 56.9153 71.5211 54.1869 68.6029 52.5838Z" fill="#7024C4"/>
<path d="M20.9109 64.0327C25.3714 65.2928 31.2628 65.9868 37.5 65.9868C43.7372 65.9868 49.6286 65.2929 54.0891 64.0327C59.546 62.4912 62.313 60.2597 62.313 57.4006C62.313 54.5414 59.546 52.3101 54.0891 50.7687C52.8776 50.4265 51.5602 50.1264 50.1595 49.8703C49.3988 51.1846 48.6018 52.5373 47.7684 53.9291C49.3188 54.1617 50.7744 54.4469 52.0963 54.7837C56.1123 55.8066 57.5795 56.9581 57.8811 57.4008C57.5794 57.8436 56.1125 58.9951 52.0964 60.0179C48.2953 60.986 43.4048 61.5382 38.254 61.5876C38.0045 61.606 37.7531 61.6164 37.5 61.6164C37.2467 61.6164 36.9955 61.606 36.7459 61.5876C31.5951 61.5382 26.7045 60.9861 22.9034 60.0179C18.8874 58.9951 17.4204 57.8434 17.1188 57.4008C17.4204 56.9581 18.8875 55.8066 22.9036 54.7837C24.2254 54.4471 25.6811 54.1617 27.2316 53.9291C26.3982 52.5375 25.6012 51.1844 24.8405 49.8703C23.4398 50.1265 22.1222 50.4265 20.9109 50.7687C15.454 52.3101 12.687 54.5415 12.687 57.4006C12.687 60.2597 15.454 62.4911 20.9109 64.0327Z" fill="#7024C4"/>
<path d="M37.5 57.2218C39.456 57.2218 41.2327 56.2251 42.2531 54.5556C49.403 42.8578 57.9258 27.4409 57.9258 20.4256C57.9258 9.16289 48.7629 0 37.5 0C26.2371 0 17.0742 9.16289 17.0742 20.4256C17.0742 27.4409 25.5971 42.8578 32.7469 54.5556C33.7673 56.2251 35.5441 57.2218 37.5 57.2218ZM29.29 19.0232C29.29 14.4964 32.973 10.8135 37.5 10.8135C42.027 10.8135 45.71 14.4964 45.71 19.0232C45.71 23.5501 42.027 27.2331 37.5 27.2331C32.973 27.2331 29.29 23.5503 29.29 19.0232Z" fill="#7024C4"/>
</svg>
