<svg width="60" height="60" viewBox="0 0 60 60" fill="none" xmlns="http://www.w3.org/2000/svg">
<path d="M30 0C13.4575 0 0 13.4575 0 30C0 46.5425 13.4575 60 30 60C46.5425 60 60 46.5425 60 30C60 13.4575 46.5425 0 30 0ZM39.2675 31.7675L26.7675 44.2675C26.28 44.755 25.64 45 25 45C24.36 45 23.7199 44.755 23.2324 44.2675C22.255 43.29 22.255 41.71 23.2324 40.7325L33.965 30L23.2325 19.2675C22.2551 18.29 22.2551 16.71 23.2325 15.7325C24.21 14.7551 25.79 14.7551 26.7675 15.7325L39.2675 28.2326C40.245 29.21 40.245 30.79 39.2675 31.7675Z" fill="#7024C4" fill-opacity="0.75"/>
</svg>
