<svg width="63" height="75" viewBox="0 0 63 75" fill="none" xmlns="http://www.w3.org/2000/svg">
<path d="M36.092 39.7301L34.9114 40.2548C31.6319 41.9601 27.6965 41.9601 24.2858 40.2548L23.1052 39.7301C22.8428 39.5989 22.5805 39.4677 22.4493 39.3365L20.7439 43.5343L24.9417 45.6332C27.9588 47.0762 31.3695 47.0762 34.3867 45.6332L38.5844 43.5343L36.8791 39.3365C36.6167 39.3365 36.3544 39.5989 36.092 39.7301V39.7301Z" fill="#7024C4"/>
<path d="M41.4704 18.8724C41.4704 18.2165 40.9457 17.6918 40.2898 17.5606L35.4361 17.0359C33.0749 16.7736 30.976 15.5929 29.6642 13.6252C28.3524 15.5929 26.2535 16.9047 23.8923 17.0359L19.0386 17.5606C18.3827 17.5606 17.858 18.2165 17.858 18.8724V26.7432C17.858 31.2034 20.3504 35.27 24.417 37.2377L25.5976 37.7624C28.2212 39.0742 31.2383 39.0742 33.8619 37.7624L35.0426 37.2377C39.1091 35.27 41.6016 31.2034 41.6016 26.7432V18.8724H41.4704Z" fill="#7024C4"/>
<path d="M11.299 38.6806L13.6602 39.8612L19.5633 37.1064C16.8085 34.3516 15.2344 30.6786 15.2344 26.7432V18.8724C15.2344 16.9047 16.8085 15.1993 18.7762 14.937L23.6299 14.4123C26.2535 14.1499 28.3524 11.9198 28.3524 9.16505V7.32853H30.976V9.29623C30.976 12.051 33.0749 14.2811 35.6985 14.5434L40.5521 15.0682C42.5198 15.1993 44.094 16.9047 44.094 19.0036V26.8744C44.094 30.8098 42.5198 34.4828 39.765 37.2376L45.6681 39.9924L48.0294 38.8117C49.9971 37.8935 50.7842 35.5322 49.7347 33.5645L48.0294 30.0227L46.8488 16.38C46.1929 7.45971 38.7156 0.769531 29.9265 0.769531H29.533C20.6128 0.769531 13.2667 7.45971 12.4796 16.38L11.299 30.0227L9.59363 33.4334C8.54419 35.4011 9.33127 37.7623 11.299 38.6806V38.6806Z" fill="#7024C4"/>
<path d="M14.8408 51.4051L19.4321 40.1237L7.62593 45.6332C3.42817 47.6009 0.804569 51.7987 0.804569 56.2588V74.2305H11.299V59.8007H13.9226V74.2305H28.3524V62.8178L23.4987 54.4223L14.8408 51.4051Z" fill="#7024C4"/>
<path d="M36.2232 53.2416V57.177C36.2232 57.9641 36.7479 58.4888 37.535 58.4888H39.3715L41.4704 60.5877L43.5693 58.4888H45.4058C46.1929 58.4888 46.7176 57.9641 46.7176 57.177V53.2416C46.7176 52.4545 46.1929 51.9298 45.4058 51.9298H37.535C36.7479 51.9298 36.2232 52.4545 36.2232 53.2416Z" fill="#7024C4"/>
<path d="M37.535 49.3062H40.8145L39.5027 45.8955L35.5673 47.8632C31.8942 49.6997 27.5653 49.6997 23.8923 47.8632L19.9569 45.8955L18.3827 49.8309L25.4664 52.1921L29.6642 59.8006L33.5996 52.848C33.8619 50.8803 35.5673 49.3062 37.535 49.3062V49.3062Z" fill="#7024C4"/>
<path d="M61.5409 61.3747L59.3109 57.964C59.0485 57.7017 58.7862 57.4393 58.3926 57.4393C57.9991 57.4393 57.6055 57.5705 57.3432 57.8329L55.5067 59.6694C55.1131 60.0629 54.9819 60.5877 55.2443 60.9812L56.2937 64.1295L51.1777 69.2455L48.0294 68.1961C47.8982 68.1961 47.767 68.0649 47.6358 68.0649C47.2423 68.0649 46.9799 68.1961 46.7176 68.4584L44.6187 70.295C44.094 70.8197 44.094 71.6068 44.6187 72.1315C44.6187 72.1315 44.7499 72.2627 44.8811 72.2627L47.1111 73.7056C48.4229 74.4927 49.9971 74.3615 51.0465 73.3121L61.4098 62.9489C61.8033 62.5554 61.8033 61.8995 61.5409 61.3747V61.3747Z" fill="#7024C4"/>
<path d="M41.7327 71.6069C41.6016 70.4262 41.9951 69.2456 42.9134 68.4585L44.7499 66.622C45.7993 65.5726 47.3735 65.179 48.8165 65.7038L50.3906 66.2285L53.1454 63.4737L52.6207 61.8995C52.096 60.4566 52.4895 58.8824 53.5389 57.833L55.3755 55.9964C56.1625 55.2094 57.3432 54.8158 58.3926 54.8158C57.8679 50.8804 55.3755 47.4697 51.7024 45.6332L39.8962 40.1237L43.5693 49.3063H45.4058C47.6358 49.3063 49.3412 51.0116 49.3412 53.2417V57.1771C49.3412 59.4071 47.6358 61.1125 45.4058 61.1125H44.6187L41.4704 64.2608L38.3221 61.1125H37.535C35.6985 61.1125 34.1243 59.8007 33.7308 57.9641L30.976 62.8178V74.2305H43.1757C42.2575 73.5746 41.7327 72.6563 41.7327 71.6069V71.6069Z" fill="#7024C4"/>
</svg>
